<?xml version="1.0" encoding="UTF-8" standalone="no"?>
<!-- Created with Inkscape (http://www.inkscape.org/) -->

<svg
   width="512"
   height="512"
   viewBox="0 0 512 512"
   version="1.1"
   id="svg1"
   xml:space="preserve"
   xmlns:inkscape="http://www.inkscape.org/namespaces/inkscape"
   xmlns:sodipodi="http://sodipodi.sourceforge.net/DTD/sodipodi-0.dtd"
   xmlns="http://www.w3.org/2000/svg"
   xmlns:svg="http://www.w3.org/2000/svg"><sodipodi:namedview
     id="namedview1"
     pagecolor="#ffffff"
     bordercolor="#000000"
     borderopacity="0.25"
     inkscape:showpageshadow="2"
     inkscape:pageopacity="0.0"
     inkscape:pagecheckerboard="0"
     inkscape:deskcolor="#d1d1d1"
     inkscape:document-units="px" /><defs
     id="defs1" /><g
     inkscape:label="Capa 1"
     inkscape:groupmode="layer"
     id="layer1"
     transform="translate(-0.3148832,0.94977319)"><path
       style="fill:#f59e0b;fill-opacity:1;stroke:none;stroke-width:0.999373"
       d="M 127.67488,-0.94977321 V 36.123883 c 0,3.152735 1.36841,10.645906 -1.02618,13.037525 -3.09332,3.089461 -15.23833,1.024892 -19.45382,1.024892 H 51.514883 v 55.61049 c 0,4.21024 2.06716,16.34008 -1.02617,19.42956 -2.39459,2.39156 -9.89715,1.0249 -13.05383,1.0249 H 0.31488319 v 52.41447 H 37.434883 l 13.05383,1.02489 1.02617,13.03751 v 36.43441 H 0.31488319 v 51.77529 H 51.514883 v 36.43451 l -1.02617,13.03752 -13.05383,1.02489 H 0.31488319 v 51.77529 H 51.514883 v 76.70405 h 76.799997 v 51.13615 h 51.84 v -51.13615 h 36.48 l 13.05382,1.02489 1.02618,13.03759 v 37.07367 h 51.2 v -37.07367 l 1.02617,-13.03759 13.05383,-1.02489 h 36.48 v 51.13615 h 52.48 v -37.07367 c 0,-3.15275 -1.3684,-10.64594 1.02617,-13.03759 3.09332,-3.0894 15.23832,-1.02489 19.45383,-1.02489 h 55.68 v -76.70405 h 51.2 v -51.77529 h -37.12 l -13.05383,-1.02489 -1.02617,-13.03752 v -36.43451 h 51.2 v -51.77529 h -51.2 v -36.43441 l 1.02617,-13.03751 13.05383,-1.02489 h 37.12 v -51.77529 h -51.2 V 50.1863 h -76.8 V -0.94977321 h -51.84 V 50.1863 h -36.48 L 282.94105,49.161408 281.91488,36.123883 V -0.94977321 h -51.2 V 36.123883 L 229.6887,49.161408 216.63488,50.1863 h -36.48 V -0.94977321 h -52.48 m 281.6,102.91136321 v 306.17727 h -305.92 V 101.96159 h 305.92 m -165.76,18.16888 c -25.68565,3.37829 -49.40643,10.78117 -70.4,26.50808 -13.21379,9.89888 -24.06374,22.35574 -32.5116,36.50152 -36.72489,61.49535 -19.47524,142.74878 39.5516,183.43446 12.80517,8.82623 27.21451,15.14126 42.24,19.09367 16.4489,4.32673 34.34838,5.20669 51.2,3.11263 19.06465,-2.36911 37.3891,-8.856 53.76,-18.87327 77.91875,-47.6776 86.30726,-165.79496 13.44,-222.29094 -14.7445,-11.43177 -31.85594,-19.33204 -49.92,-23.84132 -14.95512,-3.73319 -31.97629,-5.66814 -47.36,-3.64483 m 10.88,47.22197 c 6.27115,-0.91542 12.58054,2.62177 14.57629,8.75648 1.89048,5.81114 0.78371,13.12882 0.78371,19.176 0,12.04316 2.52388,27.32892 -0.48692,38.99129 -1.4757,5.71611 -5.83359,9.33025 -11.67308,10.02598 -6.19893,0.7384 -12.47504,-3.40689 -14.12592,-9.38681 -1.78197,-6.45484 -0.59408,-14.43551 -0.59408,-21.09363 0,-11.42514 -2.14192,-25.29838 0.43554,-36.43443 1.25133,-5.40647 5.62621,-9.23816 11.08446,-10.03488 m -37.12,29.42148 c 9.35631,-1.59593 17.88533,8.84166 14.63457,17.68706 -1.78887,4.86749 -6.62953,7.94934 -10.15211,11.5056 -4.46742,4.51007 -8.02762,9.9799 -10.18469,15.98003 -10.609,29.51012 12.47164,63.69371 44.10223,63.91707 32.07849,0.22665 55.73849,-33.13607 45.38963,-63.27793 -2.20831,-6.43175 -5.70059,-12.24738 -10.37286,-17.20121 -3.41582,-3.62156 -8.16701,-6.01556 -9.97134,-10.92356 -3.33379,-9.06832 5.09785,-19.31433 14.63457,-17.68706 5.54216,0.9457 10.24941,5.59351 14.08,9.37989 9.97341,9.85823 16.66607,22.67079 19.32492,36.43194 7.79742,40.35644 -18.38055,82.73002 -60.28492,88.66642 -41.82883,5.92582 -79.46149,-21.71735 -85.48592,-63.73759 -2.97258,-20.73357 3.54791,-44.34175 18.29529,-59.44568 4.32518,-4.4297 9.55514,-10.19726 15.99063,-11.29498 z"
       id="path1" /><path
       style="fill:none;stroke:#006bcd;stroke-width:0;stroke-dasharray:none"
       d="M 128.47232,485.8647 V 460.35916 H 90.056581 51.640836 V 421.94342 383.52768 H 26.135301 0.6297663 V 357.76816 332.00864 L 25.45339,331.7903 c 13.652992,-0.12009 25.059634,-0.45444 25.348093,-0.743 0.288458,-0.28856 0.624821,-11.6952 0.747471,-25.34809 l 0.223001,-24.82344 H 26.200861 0.6297663 V 255.37023 229.8647 H 26.200861 51.771955 l -0.223001,-24.82344 c -0.12265,-13.6529 -0.459013,-25.05954 -0.747471,-25.3481 -0.288459,-0.28856 -11.695101,-0.6229 -25.348093,-0.74299 L 0.6297663,178.73183 v -26.14259 -26.14258 l 23.7736777,0.19884 c 13.075523,0.10936 24.368309,-0.007 25.09508,-0.2588 0.726772,-0.25171 1.606205,-1.08984 1.954296,-1.86252 0.412287,-0.91518 0.524593,-14.11265 0.322195,-37.862134 l -0.310696,-36.457259 36.457259,0.310695 c 23.749492,0.202399 36.946952,0.09009 37.862132,-0.322195 0.77268,-0.348091 1.61081,-1.227523 1.86252,-1.954295 0.2517,-0.726772 0.36817,-12.019558 0.25881,-25.095081 L 127.7062,-0.6297663 h 26.20347 26.20349 V 24.875769 50.381304 l 19.6802,-0.0038 c 10.82411,-0.0021 21.9919,-0.183749 24.81732,-0.403719 5.12783,-0.399219 5.13787,-0.40349 5.54186,-2.357848 0.22259,-1.076849 0.56516,-12.372666 0.76125,-25.101817 l 0.35654,-23.1439113 h 25.04455 25.04456 l 0.35654,23.1439113 c 0.19609,12.729151 0.53866,24.024968 0.76125,25.101817 0.40399,1.954358 0.41402,1.958629 5.54185,2.357848 2.82542,0.21997 13.99322,0.401643 24.81733,0.403719 l 19.6802,0.0038 V 24.875769 -0.6297663 h 25.82041 25.82042 V 24.875769 50.381304 h 38.41575 38.41574 V 88.797048 127.21279 H 486.49446 512 v 25.75952 25.75952 l -24.82362,0.21834 c -13.653,0.12009 -25.05964,0.45443 -25.3481,0.74299 -0.28846,0.28856 -0.62482,11.6952 -0.74747,25.3481 l -0.223,24.82344 H 486.42891 512 v 25.50553 25.50554 h -25.57109 -25.5711 l 0.223,24.82344 c 0.12265,13.65289 0.45901,25.05953 0.74747,25.34809 0.28846,0.28856 11.6951,0.62291 25.3481,0.743 L 512,332.00864 v 25.75952 25.75952 h -25.50554 -25.50553 v 38.50326 38.50327 l -36.369,-0.30996 c -23.68881,-0.20189 -36.85882,-0.0893 -37.77388,0.32293 -0.77268,0.34809 -1.61081,1.22752 -1.86251,1.9543 -0.25171,0.72677 -0.36817,12.01955 -0.25881,25.09508 l 0.19884,23.77367 H 358.72009 332.51661 V 485.8647 460.35916 l -19.6802,0.004 c -10.82411,0.002 -21.99283,0.18382 -24.81937,0.40387 -4.87271,0.37936 -5.16054,0.48529 -5.55156,2.04297 -0.22682,0.90358 -0.57004,12.19932 -0.76272,25.10166 l -0.35033,23.45879 h -25.03755 -25.03754 l -0.35033,-23.45879 c -0.19269,-12.90234 -0.53591,-24.19808 -0.76273,-25.10166 -0.39101,-1.55768 -0.67885,-1.66361 -5.55156,-2.04297 -2.82654,-0.22005 -13.99525,-0.4018 -24.81936,-0.40387 l -19.6802,-0.004 v 25.50554 25.50553 H 154.29274 128.47232 Z M 409.34809,255.37023 V 102.02214 H 256.31488 103.28167 v 153.34809 153.3481 h 153.03321 153.03321 z"
       id="path2" /><path
       style="fill:none;stroke:#006bcd;stroke-width:0;stroke-dasharray:none"
       d="M 128.47232,485.8647 V 460.35916 H 90.056581 51.640836 V 421.94342 383.52768 H 26.135301 0.6297663 V 357.76816 332.00864 L 25.45339,331.7903 c 13.652992,-0.12009 25.059634,-0.45444 25.348093,-0.743 0.288458,-0.28856 0.624821,-11.6952 0.747471,-25.34809 l 0.223001,-24.82344 H 26.200861 0.6297663 V 255.37023 229.8647 H 26.200861 51.771955 l -0.223001,-24.82344 c -0.12265,-13.6529 -0.459013,-25.05954 -0.747471,-25.3481 -0.288459,-0.28856 -11.695101,-0.6229 -25.348093,-0.74299 L 0.6297663,178.73183 v -26.14259 -26.14258 l 23.7736777,0.19884 c 13.075523,0.10936 24.368309,-0.007 25.09508,-0.2588 0.726772,-0.25171 1.606205,-1.08984 1.954296,-1.86252 0.412287,-0.91518 0.524593,-14.11265 0.322195,-37.862134 l -0.310696,-36.457259 36.457259,0.310695 c 23.749492,0.202399 36.946952,0.09009 37.862132,-0.322195 0.77268,-0.348091 1.61081,-1.227523 1.86252,-1.954295 0.2517,-0.726772 0.36817,-12.019558 0.25881,-25.095081 L 127.7062,-0.6297663 h 26.20347 26.20349 V 24.875769 50.381304 l 19.6802,-0.0038 c 10.82411,-0.0021 21.9919,-0.183749 24.81732,-0.403719 5.12783,-0.399219 5.13787,-0.40349 5.54186,-2.357848 0.22259,-1.076849 0.56516,-12.372666 0.76125,-25.101817 l 0.35654,-23.1439113 h 25.04455 25.04456 l 0.35654,23.1439113 c 0.19609,12.729151 0.53866,24.024968 0.76125,25.101817 0.40399,1.954358 0.41402,1.958629 5.54185,2.357848 2.82542,0.21997 13.99322,0.401643 24.81733,0.403719 l 19.6802,0.0038 V 24.875769 -0.6297663 h 25.82041 25.82042 V 24.875769 50.381304 h 38.41575 38.41574 V 88.797048 127.21279 H 486.49446 512 v 25.75952 25.75952 l -24.82362,0.21834 c -13.653,0.12009 -25.05964,0.45443 -25.3481,0.74299 -0.28846,0.28856 -0.62482,11.6952 -0.74747,25.3481 l -0.223,24.82344 H 486.42891 512 v 25.50553 25.50554 h -25.57109 -25.5711 l 0.223,24.82344 c 0.12265,13.65289 0.45901,25.05953 0.74747,25.34809 0.28846,0.28856 11.6951,0.62291 25.3481,0.743 L 512,332.00864 v 25.75952 25.75952 h -25.50554 -25.50553 v 38.50326 38.50327 l -36.369,-0.30996 c -23.68881,-0.20189 -36.85882,-0.0893 -37.77388,0.32293 -0.77268,0.34809 -1.61081,1.22752 -1.86251,1.9543 -0.25171,0.72677 -0.36817,12.01955 -0.25881,25.09508 l 0.19884,23.77367 H 358.72009 332.51661 V 485.8647 460.35916 l -19.6802,0.004 c -10.82411,0.002 -21.99283,0.18382 -24.81937,0.40387 -4.87271,0.37936 -5.16054,0.48529 -5.55156,2.04297 -0.22682,0.90358 -0.57004,12.19932 -0.76272,25.10166 l -0.35033,23.45879 h -25.03755 -25.03754 l -0.35033,-23.45879 c -0.19269,-12.90234 -0.53591,-24.19808 -0.76273,-25.10166 -0.39101,-1.55768 -0.67885,-1.66361 -5.55156,-2.04297 -2.82654,-0.22005 -13.99525,-0.4018 -24.81936,-0.40387 l -19.6802,-0.004 v 25.50554 25.50553 H 154.29274 128.47232 Z M 409.34809,255.37023 V 102.02214 H 256.31488 103.28167 v 153.34809 153.3481 h 153.03321 153.03321 z"
       id="path3" /><path
       style="fill:none;stroke:#006bcd;stroke-width:0;stroke-dasharray:none"
       d="M 128.47232,485.8647 V 460.35916 H 90.056581 51.640836 V 421.94342 383.52768 H 26.135301 0.6297663 V 357.76816 332.00864 L 25.45339,331.7903 c 13.652992,-0.12009 25.059634,-0.45444 25.348093,-0.743 0.288458,-0.28856 0.624821,-11.6952 0.747471,-25.34809 l 0.223001,-24.82344 H 26.200861 0.6297663 V 255.37023 229.8647 H 26.200861 51.771955 l -0.223001,-24.82344 c -0.12265,-13.6529 -0.459013,-25.05954 -0.747471,-25.3481 -0.288459,-0.28856 -11.695101,-0.6229 -25.348093,-0.74299 L 0.6297663,178.73183 v -26.14259 -26.14258 l 23.7736777,0.19884 c 13.075523,0.10936 24.368309,-0.007 25.09508,-0.2588 0.726772,-0.25171 1.606205,-1.08984 1.954296,-1.86252 0.412287,-0.91518 0.524593,-14.11265 0.322195,-37.862134 l -0.310696,-36.457259 36.457259,0.310695 c 23.749492,0.202399 36.946952,0.09009 37.862132,-0.322195 0.77268,-0.348091 1.61081,-1.227523 1.86252,-1.954295 0.2517,-0.726772 0.36817,-12.019558 0.25881,-25.095081 L 127.7062,-0.6297663 h 26.20347 26.20349 V 24.875769 50.381304 l 19.6802,-0.0038 c 10.82411,-0.0021 21.9919,-0.183749 24.81732,-0.403719 5.12783,-0.399219 5.13787,-0.40349 5.54186,-2.357848 0.22259,-1.076849 0.56516,-12.372666 0.76125,-25.101817 l 0.35654,-23.1439113 h 25.04455 25.04456 l 0.35654,23.1439113 c 0.19609,12.729151 0.53866,24.024968 0.76125,25.101817 0.40399,1.954358 0.41402,1.958629 5.54185,2.357848 2.82542,0.21997 13.99322,0.401643 24.81733,0.403719 l 19.6802,0.0038 V 24.875769 -0.6297663 h 25.82041 25.82042 V 24.875769 50.381304 h 38.41575 38.41574 V 88.797048 127.21279 H 486.49446 512 v 25.75952 25.75952 l -24.82362,0.21834 c -13.653,0.12009 -25.05964,0.45443 -25.3481,0.74299 -0.28846,0.28856 -0.62482,11.6952 -0.74747,25.3481 l -0.223,24.82344 H 486.42891 512 v 25.50553 25.50554 h -25.57109 -25.5711 l 0.223,24.82344 c 0.12265,13.65289 0.45901,25.05953 0.74747,25.34809 0.28846,0.28856 11.6951,0.62291 25.3481,0.743 L 512,332.00864 v 25.75952 25.75952 h -25.50554 -25.50553 v 38.50326 38.50327 l -36.369,-0.30996 c -23.68881,-0.20189 -36.85882,-0.0893 -37.77388,0.32293 -0.77268,0.34809 -1.61081,1.22752 -1.86251,1.9543 -0.25171,0.72677 -0.36817,12.01955 -0.25881,25.09508 l 0.19884,23.77367 H 358.72009 332.51661 V 485.8647 460.35916 l -19.6802,0.004 c -10.82411,0.002 -21.99283,0.18382 -24.81937,0.40387 -4.87271,0.37936 -5.16054,0.48529 -5.55156,2.04297 -0.22682,0.90358 -0.57004,12.19932 -0.76272,25.10166 l -0.35033,23.45879 h -25.03755 -25.03754 l -0.35033,-23.45879 c -0.19269,-12.90234 -0.53591,-24.19808 -0.76273,-25.10166 -0.39101,-1.55768 -0.67885,-1.66361 -5.55156,-2.04297 -2.82654,-0.22005 -13.99525,-0.4018 -24.81936,-0.40387 l -19.6802,-0.004 v 25.50554 25.50553 H 154.29274 128.47232 Z M 409.34809,255.37023 V 102.02214 H 256.31488 103.28167 v 153.34809 153.3481 h 153.03321 153.03321 z"
       id="path4" /><path
       style="fill:none;stroke:#006bcd;stroke-width:0;stroke-dasharray:none"
       d="M 128.47232,485.8647 V 460.35916 H 90.056581 51.640836 V 421.94342 383.52768 H 26.135301 0.6297663 V 357.76816 332.00864 L 25.45339,331.7903 c 13.652992,-0.12009 25.059634,-0.45444 25.348093,-0.743 0.288458,-0.28856 0.624821,-11.6952 0.747471,-25.34809 l 0.223001,-24.82344 H 26.200861 0.6297663 V 255.37023 229.8647 H 26.200861 51.771955 l -0.223001,-24.82344 c -0.12265,-13.6529 -0.459013,-25.05954 -0.747471,-25.3481 -0.288459,-0.28856 -11.695101,-0.6229 -25.348093,-0.74299 L 0.6297663,178.73183 v -26.14259 -26.14258 l 23.7736777,0.19884 c 13.075523,0.10936 24.368309,-0.007 25.09508,-0.2588 0.726772,-0.25171 1.606205,-1.08984 1.954296,-1.86252 0.412287,-0.91518 0.524593,-14.11265 0.322195,-37.862134 l -0.310696,-36.457259 36.457259,0.310695 c 23.749492,0.202399 36.946952,0.09009 37.862132,-0.322195 0.77268,-0.348091 1.61081,-1.227523 1.86252,-1.954295 0.2517,-0.726772 0.36817,-12.019558 0.25881,-25.095081 L 127.7062,-0.6297663 h 26.20347 26.20349 V 24.875769 50.381304 l 19.6802,-0.0038 c 10.82411,-0.0021 21.9919,-0.183749 24.81732,-0.403719 5.12783,-0.399219 5.13787,-0.40349 5.54186,-2.357848 0.22259,-1.076849 0.56516,-12.372666 0.76125,-25.101817 l 0.35654,-23.1439113 h 25.04455 25.04456 l 0.35654,23.1439113 c 0.19609,12.729151 0.53866,24.024968 0.76125,25.101817 0.40399,1.954358 0.41402,1.958629 5.54185,2.357848 2.82542,0.21997 13.99322,0.401643 24.81733,0.403719 l 19.6802,0.0038 V 24.875769 -0.6297663 h 25.82041 25.82042 V 24.875769 50.381304 h 38.41575 38.41574 V 88.797048 127.21279 H 486.49446 512 v 25.75952 25.75952 l -24.82362,0.21834 c -13.653,0.12009 -25.05964,0.45443 -25.3481,0.74299 -0.28846,0.28856 -0.62482,11.6952 -0.74747,25.3481 l -0.223,24.82344 H 486.42891 512 v 25.50553 25.50554 h -25.57109 -25.5711 l 0.223,24.82344 c 0.12265,13.65289 0.45901,25.05953 0.74747,25.34809 0.28846,0.28856 11.6951,0.62291 25.3481,0.743 L 512,332.00864 v 25.75952 25.75952 h -25.50554 -25.50553 v 38.50326 38.50327 l -36.369,-0.30996 c -23.68881,-0.20189 -36.85882,-0.0893 -37.77388,0.32293 -0.77268,0.34809 -1.61081,1.22752 -1.86251,1.9543 -0.25171,0.72677 -0.36817,12.01955 -0.25881,25.09508 l 0.19884,23.77367 H 358.72009 332.51661 V 485.8647 460.35916 l -19.6802,0.004 c -10.82411,0.002 -21.99283,0.18382 -24.81937,0.40387 -4.87271,0.37936 -5.16054,0.48529 -5.55156,2.04297 -0.22682,0.90358 -0.57004,12.19932 -0.76272,25.10166 l -0.35033,23.45879 h -25.03755 -25.03754 l -0.35033,-23.45879 c -0.19269,-12.90234 -0.53591,-24.19808 -0.76273,-25.10166 -0.39101,-1.55768 -0.67885,-1.66361 -5.55156,-2.04297 -2.82654,-0.22005 -13.99525,-0.4018 -24.81936,-0.40387 l -19.6802,-0.004 v 25.50554 25.50553 H 154.29274 128.47232 Z M 409.34809,255.37023 V 102.02214 H 256.31488 103.28167 v 153.34809 153.3481 h 153.03321 153.03321 z"
       id="path5" /><path
       style="fill:none;stroke:#006bcd;stroke-width:0;stroke-dasharray:none"
       d="M 128.47232,485.8647 V 460.35916 H 90.056581 51.640836 V 421.94342 383.52768 H 26.135301 0.6297663 V 357.76816 332.00864 L 25.45339,331.7903 c 13.652992,-0.12009 25.059634,-0.45444 25.348093,-0.743 0.288458,-0.28856 0.624821,-11.6952 0.747471,-25.34809 l 0.223001,-24.82344 H 26.200861 0.6297663 V 255.37023 229.8647 H 26.200861 51.771955 l -0.223001,-24.82344 c -0.12265,-13.6529 -0.459013,-25.05954 -0.747471,-25.3481 -0.288459,-0.28856 -11.695101,-0.6229 -25.348093,-0.74299 L 0.6297663,178.73183 v -26.14259 -26.14258 l 23.7736777,0.19884 c 13.075523,0.10936 24.368309,-0.007 25.09508,-0.2588 0.726772,-0.25171 1.606205,-1.08984 1.954296,-1.86252 0.412287,-0.91518 0.524593,-14.11265 0.322195,-37.862134 l -0.310696,-36.457259 36.457259,0.310695 c 23.749492,0.202399 36.946952,0.09009 37.862132,-0.322195 0.77268,-0.348091 1.61081,-1.227523 1.86252,-1.954295 0.2517,-0.726772 0.36817,-12.019558 0.25881,-25.095081 L 127.7062,-0.6297663 h 26.20347 26.20349 V 24.875769 50.381304 l 19.6802,-0.0038 c 10.82411,-0.0021 21.9919,-0.183749 24.81732,-0.403719 5.12783,-0.399219 5.13787,-0.40349 5.54186,-2.357848 0.22259,-1.076849 0.56516,-12.372666 0.76125,-25.101817 l 0.35654,-23.1439113 h 25.04455 25.04456 l 0.35654,23.1439113 c 0.19609,12.729151 0.53866,24.024968 0.76125,25.101817 0.40399,1.954358 0.41402,1.958629 5.54185,2.357848 2.82542,0.21997 13.99322,0.401643 24.81733,0.403719 l 19.6802,0.0038 V 24.875769 -0.6297663 h 25.82041 25.82042 V 24.875769 50.381304 h 38.41575 38.41574 V 88.797048 127.21279 H 486.49446 512 v 25.75952 25.75952 l -24.82362,0.21834 c -13.653,0.12009 -25.05964,0.45443 -25.3481,0.74299 -0.28846,0.28856 -0.62482,11.6952 -0.74747,25.3481 l -0.223,24.82344 H 486.42891 512 v 25.50553 25.50554 h -25.57109 -25.5711 l 0.223,24.82344 c 0.12265,13.65289 0.45901,25.05953 0.74747,25.34809 0.28846,0.28856 11.6951,0.62291 25.3481,0.743 L 512,332.00864 v 25.75952 25.75952 h -25.50554 -25.50553 v 38.50326 38.50327 l -36.369,-0.30996 c -23.68881,-0.20189 -36.85882,-0.0893 -37.77388,0.32293 -0.77268,0.34809 -1.61081,1.22752 -1.86251,1.9543 -0.25171,0.72677 -0.36817,12.01955 -0.25881,25.09508 l 0.19884,23.77367 H 358.72009 332.51661 V 485.8647 460.35916 l -19.6802,0.004 c -10.82411,0.002 -21.99283,0.18382 -24.81937,0.40387 -4.87271,0.37936 -5.16054,0.48529 -5.55156,2.04297 -0.22682,0.90358 -0.57004,12.19932 -0.76272,25.10166 l -0.35033,23.45879 h -25.03755 -25.03754 l -0.35033,-23.45879 c -0.19269,-12.90234 -0.53591,-24.19808 -0.76273,-25.10166 -0.39101,-1.55768 -0.67885,-1.66361 -5.55156,-2.04297 -2.82654,-0.22005 -13.99525,-0.4018 -24.81936,-0.40387 l -19.6802,-0.004 v 25.50554 25.50553 H 154.29274 128.47232 Z M 409.34809,255.37023 V 102.02214 H 256.31488 103.28167 l 0.15558,105.01353 0.15558,105.01353 0.16115,-104.69865 0.16116,-104.69864 h 152.40159 152.4016 V 255.37023 408.08856 H 256.32117 103.92402 l -0.17018,-29.12669 -0.17018,-29.12669 -0.15099,29.44157 -0.151,29.44158 H 256.31488 409.34809 Z M 273.75864,389.49018 c 15.49733,-2.01207 28.69713,-5.99878 42.69892,-12.89628 14.35434,-7.07116 25.28214,-14.9562 36.01229,-25.98495 19.48644,-20.0287 31.57167,-44.32522 36.78416,-73.95199 1.67324,-9.51042 2.28087,-27.52907 1.26117,-37.39963 -5.34267,-51.71689 -36.56435,-92.94682 -83.82734,-110.6986 -12.27305,-4.6097 -27.80886,-8.10321 -38.04193,-8.55441 -3.14517,-0.13868 -4.7266,-0.13567 -3.5143,0.007 16.54583,1.94303 24.78582,3.64492 36.35258,7.50825 39.84016,13.30674 69.50471,43.14572 82.33854,82.82268 14.41673,44.57065 4.99061,95.55089 -24.29342,131.38857 -17.85154,21.84664 -43.67487,37.85456 -72.041,44.65828 -13.49404,3.2366 -32.27261,4.34919 -46.78496,2.77189 -20.66368,-2.24587 -43.09324,-10.62048 -60.27531,-22.50521 -10.87367,-7.52125 -22.87166,-18.90511 -30.19006,-28.64476 -2.02381,-2.69337 -3.8154,-4.7613 -3.9813,-4.59539 -0.41999,0.41999 7.01126,9.82445 12.08996,15.30018 20.3433,21.93367 51.39858,37.59245 81.32386,41.00535 8.27666,0.94392 25.963,0.82425 34.08814,-0.23067 z M 142.38339,326.62687 c -11.83891,-19.5999 -18.02836,-38.9977 -20.4257,-64.01432 -0.16913,-1.76497 -0.23131,-1.61242 -0.31201,0.76555 -0.15886,4.68087 1.68666,16.41914 3.98766,25.36327 2.45796,9.55419 4.96601,16.57652 8.86187,24.8125 3.05268,6.45345 10.40222,19.12148 10.83976,18.68393 0.15004,-0.15003 -1.17817,-2.67496 -2.95158,-5.61093 z m 133.76913,3.76192 c 11.30152,-2.95369 21.75248,-8.79537 30.35583,-16.96773 21.4609,-20.38574 29.40474,-52.4902 19.89584,-80.40753 -3.54822,-10.41725 -9.16379,-19.2293 -17.45764,-27.39483 -8.06928,-7.94444 -13.07719,-10.15558 -19.26611,-8.50658 -5.09579,1.35773 -10.07324,7.93924 -10.06069,13.30289 0.01,4.20917 1.35006,6.40392 7.81629,12.80001 10.80576,10.68853 14.83674,19.31521 15.34205,32.83339 0.33803,9.04336 -0.87427,14.91424 -4.6612,22.57292 -10.36654,20.96531 -33.50021,31.82101 -54.26634,25.465 -20.06436,-6.14122 -34.32221,-25.43543 -34.37093,-46.51191 -0.0183,-7.92816 1.10138,-12.70442 4.69895,-20.04416 2.13628,-4.35839 3.83,-6.55047 10.02311,-12.97232 5.95485,-6.17479 7.6,-8.27569 8.18675,-10.45474 1.661,-6.16846 -1.49469,-12.81629 -7.56186,-15.93 -6.33445,-3.25088 -11.82668,-1.53181 -20.16397,6.31131 -11.13205,10.47223 -18.3432,23.75466 -21.47202,39.54993 -1.27828,6.45315 -1.11623,21.97619 0.29779,28.52594 2.28387,10.57895 5.61751,18.53781 11.38728,27.18649 9.03648,13.54535 22.41733,23.7579 37.94434,28.95993 9.33743,3.12832 14.32036,3.8003 26.32884,3.55056 9.04457,-0.18809 11.68336,-0.47807 17.00369,-1.86857 z M 121.38121,250.19765 c -0.12536,-2.00428 -0.22909,-0.5268 -0.2305,3.28328 -0.001,3.81009 0.10114,5.44996 0.22791,3.64415 0.12678,-1.8058 0.12794,-4.92314 0.003,-6.92743 z m 1.78421,-16.23947 c 3.84566,-27.39033 16.47184,-53.68091 35.20647,-73.30788 19.90592,-20.85406 44.6074,-33.25376 77.20971,-38.7579 5.23537,-0.88387 10.69597,-1.65239 12.13467,-1.70782 2.32713,-0.0897 2.38961,-0.12885 0.56611,-0.35501 -5.14903,-0.63862 -25.64588,3.48915 -38.5702,7.76748 -38.16793,12.63471 -66.79113,40.89161 -80.62788,79.59606 -4.13837,11.57594 -7.69304,28.94042 -7.42938,36.29239 l 0.11002,3.06801 0.21393,-2.83395 c 0.11766,-1.55867 0.65161,-5.95129 1.18655,-9.76138 z m 140.57333,8.70807 c 3.34167,-2.06599 5.4331,-5.59966 6.45852,-10.91225 1.00628,-5.21349 0.0854,-52.38614 -1.08799,-55.73432 -3.13541,-8.94652 -14.5667,-11.69937 -21.87362,-5.26755 -5.00964,4.40965 -5.12362,5.24344 -4.89536,35.81122 0.10733,14.37441 0.46098,27.15522 0.78587,28.4018 0.97773,3.75149 3.19174,6.42831 6.89171,8.33236 2.97677,1.53189 3.97976,1.7385 7.14281,1.47138 2.55066,-0.2154 4.56908,-0.86058 6.57806,-2.10264 z m -3.7816,-123.47269 c -1.63365,-0.12926 -4.4676,-0.13061 -6.29766,-0.003 -1.83007,0.12761 -0.49344,0.23337 2.97028,0.23501 3.46371,0.002 4.96103,-0.10277 3.32738,-0.23203 z"
       id="path6" /><path
       style="fill:none;stroke:#006bcd;stroke-width:0;stroke-dasharray:none"
       d="m 239.62608,389.09138 c -11.19707,-1.26506 -25.51306,-5.24638 -37.4711,-10.4208 -42.83405,-18.53495 -72.84988,-59.29292 -79.44066,-107.87107 -1.18945,-8.76701 -1.02371,-27.71738 0.31945,-36.52645 4.3455,-28.49962 16.56305,-53.95342 35.33812,-73.62276 19.97413,-20.92551 44.21449,-33.0666 77.64199,-38.88797 35.92351,-6.25604 77.07312,4.42488 105.86115,27.47765 38.56493,30.88186 55.97227,81.44514 45.7042,132.75739 -4.27301,21.35332 -14.52074,43.17618 -28.04992,59.73314 -17.85154,21.84664 -43.67487,37.85456 -72.041,44.65828 -13.34766,3.20149 -33.41645,4.3347 -47.86223,2.70259 z m 36.52644,-58.70259 c 11.30152,-2.95369 21.75248,-8.79537 30.35583,-16.96773 21.4609,-20.38574 29.40474,-52.4902 19.89584,-80.40753 -3.54822,-10.41725 -9.16379,-19.2293 -17.45764,-27.39483 -8.06928,-7.94444 -13.07719,-10.15558 -19.26611,-8.50658 -5.09579,1.35773 -10.07324,7.93924 -10.06069,13.30289 0.01,4.20917 1.35006,6.40392 7.81629,12.80001 10.80576,10.68853 14.83674,19.31521 15.34205,32.83339 0.33803,9.04336 -0.87427,14.91424 -4.6612,22.57292 -10.36654,20.96531 -33.50021,31.82101 -54.26634,25.465 -20.06436,-6.14122 -34.32221,-25.43543 -34.37093,-46.51191 -0.0183,-7.92816 1.10138,-12.70442 4.69895,-20.04416 2.13628,-4.35839 3.83,-6.55047 10.02311,-12.97232 5.95485,-6.17479 7.6,-8.27569 8.18675,-10.45474 1.661,-6.16846 -1.49469,-12.81629 -7.56186,-15.93 -6.33445,-3.25088 -11.82668,-1.53181 -20.16397,6.31131 -11.13205,10.47223 -18.3432,23.75466 -21.47202,39.54993 -1.27828,6.45315 -1.11623,21.97619 0.29779,28.52594 2.28387,10.57895 5.61751,18.53781 11.38728,27.18649 9.03648,13.54535 22.41733,23.7579 37.94434,28.95993 9.33743,3.12832 14.32036,3.8003 26.32884,3.55056 9.04457,-0.18809 11.68336,-0.47807 17.00369,-1.86857 z m -12.41377,-87.72254 c 3.34167,-2.06599 5.4331,-5.59966 6.45852,-10.91225 1.00628,-5.21349 0.0854,-52.38614 -1.08799,-55.73432 -3.13541,-8.94651 -14.5667,-11.69937 -21.87362,-5.26756 -5.00964,4.40966 -5.12362,5.24345 -4.89536,35.81123 0.10733,14.37441 0.46098,27.15522 0.78587,28.4018 0.97773,3.75149 3.19174,6.42831 6.89171,8.33236 2.97677,1.53189 3.97976,1.7385 7.14281,1.47138 2.55066,-0.2154 4.56908,-0.86058 6.57806,-2.10264 z"
       id="path7" /><path
       style="fill:none;stroke:#006bcd;stroke-width:0;stroke-dasharray:none"
       d="m 239.62608,389.09138 c -11.19707,-1.26506 -25.51306,-5.24638 -37.4711,-10.4208 -42.83405,-18.53495 -72.84988,-59.29292 -79.44066,-107.87107 -1.18945,-8.76701 -1.02371,-27.71738 0.31945,-36.52645 4.3455,-28.49962 16.56305,-53.95342 35.33812,-73.62276 19.97413,-20.92551 44.21449,-33.0666 77.64199,-38.88797 35.92351,-6.25604 77.07312,4.42488 105.86115,27.47765 38.56493,30.88186 55.97227,81.44514 45.7042,132.75739 -4.27301,21.35332 -14.52074,43.17618 -28.04992,59.73314 -17.85154,21.84664 -43.67487,37.85456 -72.041,44.65828 -13.34766,3.20149 -33.41645,4.3347 -47.86223,2.70259 z m 36.52644,-58.70259 c 11.30152,-2.95369 21.75248,-8.79537 30.35583,-16.96773 21.4609,-20.38574 29.40474,-52.4902 19.89584,-80.40753 -3.54822,-10.41725 -9.16379,-19.2293 -17.45764,-27.39483 -8.06928,-7.94444 -13.07719,-10.15558 -19.26611,-8.50658 -5.09579,1.35773 -10.07324,7.93924 -10.06069,13.30289 0.01,4.20917 1.35006,6.40392 7.81629,12.80001 10.80576,10.68853 14.83674,19.31521 15.34205,32.83339 0.33803,9.04336 -0.87427,14.91424 -4.6612,22.57292 -10.36654,20.96531 -33.50021,31.82101 -54.26634,25.465 -20.06436,-6.14122 -34.32221,-25.43543 -34.37093,-46.51191 -0.0183,-7.92816 1.10138,-12.70442 4.69895,-20.04416 2.13628,-4.35839 3.83,-6.55047 10.02311,-12.97232 5.95485,-6.17479 7.6,-8.27569 8.18675,-10.45474 1.661,-6.16846 -1.49469,-12.81629 -7.56186,-15.93 -6.33445,-3.25088 -11.82668,-1.53181 -20.16397,6.31131 -11.13205,10.47223 -18.3432,23.75466 -21.47202,39.54993 -1.27828,6.45315 -1.11623,21.97619 0.29779,28.52594 2.28387,10.57895 5.61751,18.53781 11.38728,27.18649 9.03648,13.54535 22.41733,23.7579 37.94434,28.95993 9.33743,3.12832 14.32036,3.8003 26.32884,3.55056 9.04457,-0.18809 11.68336,-0.47807 17.00369,-1.86857 z m -12.41377,-87.72254 c 3.34167,-2.06599 5.4331,-5.59966 6.45852,-10.91225 1.00628,-5.21349 0.0854,-52.38614 -1.08799,-55.73432 -3.13541,-8.94651 -14.5667,-11.69937 -21.87362,-5.26756 -5.00964,4.40966 -5.12362,5.24345 -4.89536,35.81123 0.10733,14.37441 0.46098,27.15522 0.78587,28.4018 0.97773,3.75149 3.19174,6.42831 6.89171,8.33236 2.97677,1.53189 3.97976,1.7385 7.14281,1.47138 2.55066,-0.2154 4.56908,-0.86058 6.57806,-2.10264 z"
       id="path8" /><path
       style="fill:none;stroke:#006bcd;stroke-width:0;stroke-dasharray:none"
       d="m 239.62608,389.09138 c -11.19707,-1.26506 -25.51306,-5.24638 -37.4711,-10.4208 -42.83405,-18.53495 -72.84988,-59.29292 -79.44066,-107.87107 -1.18945,-8.76701 -1.02371,-27.71738 0.31945,-36.52645 4.3455,-28.49962 16.56305,-53.95342 35.33812,-73.62276 19.97413,-20.92551 44.21449,-33.0666 77.64199,-38.88797 35.92351,-6.25604 77.07312,4.42488 105.86115,27.47765 38.56493,30.88186 55.97227,81.44514 45.7042,132.75739 -4.27301,21.35332 -14.52074,43.17618 -28.04992,59.73314 -17.85154,21.84664 -43.67487,37.85456 -72.041,44.65828 -13.34766,3.20149 -33.41645,4.3347 -47.86223,2.70259 z m 36.52644,-58.70259 c 11.30152,-2.95369 21.75248,-8.79537 30.35583,-16.96773 21.4609,-20.38574 29.40474,-52.4902 19.89584,-80.40753 -3.54822,-10.41725 -9.16379,-19.2293 -17.45764,-27.39483 -8.06928,-7.94444 -13.07719,-10.15558 -19.26611,-8.50658 -5.09579,1.35773 -10.07324,7.93924 -10.06069,13.30289 0.01,4.20917 1.35006,6.40392 7.81629,12.80001 10.80576,10.68853 14.83674,19.31521 15.34205,32.83339 0.33803,9.04336 -0.87427,14.91424 -4.6612,22.57292 -10.36654,20.96531 -33.50021,31.82101 -54.26634,25.465 -20.06436,-6.14122 -34.32221,-25.43543 -34.37093,-46.51191 -0.0183,-7.92816 1.10138,-12.70442 4.69895,-20.04416 2.13628,-4.35839 3.83,-6.55047 10.02311,-12.97232 5.95485,-6.17479 7.6,-8.27569 8.18675,-10.45474 1.661,-6.16846 -1.49469,-12.81629 -7.56186,-15.93 -6.33445,-3.25088 -11.82668,-1.53181 -20.16397,6.31131 -11.13205,10.47223 -18.3432,23.75466 -21.47202,39.54993 -1.27828,6.45315 -1.11623,21.97619 0.29779,28.52594 2.28387,10.57895 5.61751,18.53781 11.38728,27.18649 9.03648,13.54535 22.41733,23.7579 37.94434,28.95993 9.33743,3.12832 14.32036,3.8003 26.32884,3.55056 9.04457,-0.18809 11.68336,-0.47807 17.00369,-1.86857 z m -12.41377,-87.72254 c 3.34167,-2.06599 5.4331,-5.59966 6.45852,-10.91225 1.00628,-5.21349 0.0854,-52.38614 -1.08799,-55.73432 -3.13541,-8.94651 -14.5667,-11.69937 -21.87362,-5.26756 -5.00964,4.40966 -5.12362,5.24345 -4.89536,35.81123 0.10733,14.37441 0.46098,27.15522 0.78587,28.4018 0.97773,3.75149 3.19174,6.42831 6.89171,8.33236 2.97677,1.53189 3.97976,1.7385 7.14281,1.47138 2.55066,-0.2154 4.56908,-0.86058 6.57806,-2.10264 z"
       id="path9" /><path
       style="fill:none;stroke:#006bcd;stroke-width:0;stroke-dasharray:none"
       d="m 239.62608,389.09138 c -11.19707,-1.26506 -25.51306,-5.24638 -37.4711,-10.4208 -42.83405,-18.53495 -72.84988,-59.29292 -79.44066,-107.87107 -1.18945,-8.76701 -1.02371,-27.71738 0.31945,-36.52645 4.3455,-28.49962 16.56305,-53.95342 35.33812,-73.62276 19.97413,-20.92551 44.21449,-33.0666 77.64199,-38.88797 35.92351,-6.25604 77.07312,4.42488 105.86115,27.47765 38.56493,30.88186 55.97227,81.44514 45.7042,132.75739 -4.27301,21.35332 -14.52074,43.17618 -28.04992,59.73314 -17.85154,21.84664 -43.67487,37.85456 -72.041,44.65828 -13.34766,3.20149 -33.41645,4.3347 -47.86223,2.70259 z m 36.52644,-58.70259 c 11.30152,-2.95369 21.75248,-8.79537 30.35583,-16.96773 21.4609,-20.38574 29.40474,-52.4902 19.89584,-80.40753 -3.54822,-10.41725 -9.16379,-19.2293 -17.45764,-27.39483 -8.06928,-7.94444 -13.07719,-10.15558 -19.26611,-8.50658 -5.09579,1.35773 -10.07324,7.93924 -10.06069,13.30289 0.01,4.20917 1.35006,6.40392 7.81629,12.80001 10.80576,10.68853 14.83674,19.31521 15.34205,32.83339 0.33803,9.04336 -0.87427,14.91424 -4.6612,22.57292 -10.36654,20.96531 -33.50021,31.82101 -54.26634,25.465 -20.06436,-6.14122 -34.32221,-25.43543 -34.37093,-46.51191 -0.0183,-7.92816 1.10138,-12.70442 4.69895,-20.04416 2.13628,-4.35839 3.83,-6.55047 10.02311,-12.97232 5.95485,-6.17479 7.6,-8.27569 8.18675,-10.45474 1.661,-6.16846 -1.49469,-12.81629 -7.56186,-15.93 -6.33445,-3.25088 -11.82668,-1.53181 -20.16397,6.31131 -11.13205,10.47223 -18.3432,23.75466 -21.47202,39.54993 -1.27828,6.45315 -1.11623,21.97619 0.29779,28.52594 2.28387,10.57895 5.61751,18.53781 11.38728,27.18649 9.03648,13.54535 22.41733,23.7579 37.94434,28.95993 9.33743,3.12832 14.32036,3.8003 26.32884,3.55056 9.04457,-0.18809 11.68336,-0.47807 17.00369,-1.86857 z m -12.41377,-87.72254 c 3.34167,-2.06599 5.4331,-5.59966 6.45852,-10.91225 1.00628,-5.21349 0.0854,-52.38614 -1.08799,-55.73432 -3.13541,-8.94651 -14.5667,-11.69937 -21.87362,-5.26756 -5.00964,4.40966 -5.12362,5.24345 -4.89536,35.81123 0.10733,14.37441 0.46098,27.15522 0.78587,28.4018 0.97773,3.75149 3.19174,6.42831 6.89171,8.33236 2.97677,1.53189 3.97976,1.7385 7.14281,1.47138 2.55066,-0.2154 4.56908,-0.86058 6.57806,-2.10264 z"
       id="path10" /><path
       style="fill:none;stroke:#006bcd;stroke-width:0;stroke-dasharray:none"
       d="m 239.62608,389.09138 c -11.19707,-1.26506 -25.51306,-5.24638 -37.4711,-10.4208 -42.83405,-18.53495 -72.84988,-59.29292 -79.44066,-107.87107 -1.18945,-8.76701 -1.02371,-27.71738 0.31945,-36.52645 4.3455,-28.49962 16.56305,-53.95342 35.33812,-73.62276 19.97413,-20.92551 44.21449,-33.0666 77.64199,-38.88797 35.92351,-6.25604 77.07312,4.42488 105.86115,27.47765 38.56493,30.88186 55.97227,81.44514 45.7042,132.75739 -4.27301,21.35332 -14.52074,43.17618 -28.04992,59.73314 -17.85154,21.84664 -43.67487,37.85456 -72.041,44.65828 -13.34766,3.20149 -33.41645,4.3347 -47.86223,2.70259 z m 36.52644,-58.70259 c 11.30152,-2.95369 21.75248,-8.79537 30.35583,-16.96773 21.4609,-20.38574 29.40474,-52.4902 19.89584,-80.40753 -3.54822,-10.41725 -9.16379,-19.2293 -17.45764,-27.39483 -8.06928,-7.94444 -13.07719,-10.15558 -19.26611,-8.50658 -5.09579,1.35773 -10.07324,7.93924 -10.06069,13.30289 0.01,4.20917 1.35006,6.40392 7.81629,12.80001 10.80576,10.68853 14.83674,19.31521 15.34205,32.83339 0.33803,9.04336 -0.87427,14.91424 -4.6612,22.57292 -10.36654,20.96531 -33.50021,31.82101 -54.26634,25.465 -20.06436,-6.14122 -34.32221,-25.43543 -34.37093,-46.51191 -0.0183,-7.92816 1.10138,-12.70442 4.69895,-20.04416 2.13628,-4.35839 3.83,-6.55047 10.02311,-12.97232 5.95485,-6.17479 7.6,-8.27569 8.18675,-10.45474 1.661,-6.16846 -1.49469,-12.81629 -7.56186,-15.93 -6.33445,-3.25088 -11.82668,-1.53181 -20.16397,6.31131 -11.13205,10.47223 -18.3432,23.75466 -21.47202,39.54993 -1.27828,6.45315 -1.11623,21.97619 0.29779,28.52594 2.28387,10.57895 5.61751,18.53781 11.38728,27.18649 9.03648,13.54535 22.41733,23.7579 37.94434,28.95993 9.33743,3.12832 14.32036,3.8003 26.32884,3.55056 9.04457,-0.18809 11.68336,-0.47807 17.00369,-1.86857 z m -12.41377,-87.72254 c 3.34167,-2.06599 5.4331,-5.59966 6.45852,-10.91225 1.00628,-5.21349 0.0854,-52.38614 -1.08799,-55.73432 -3.13541,-8.94651 -14.5667,-11.69937 -21.87362,-5.26756 -5.00964,4.40966 -5.12362,5.24345 -4.89536,35.81123 0.10733,14.37441 0.46098,27.15522 0.78587,28.4018 0.97773,3.75149 3.19174,6.42831 6.89171,8.33236 2.97677,1.53189 3.97976,1.7385 7.14281,1.47138 2.55066,-0.2154 4.56908,-0.86058 6.57806,-2.10264 z"
       id="path11" /><path
       style="fill:none;stroke:#006bcd;stroke-width:0;stroke-dasharray:none"
       d="m 239.62608,389.09138 c -11.19707,-1.26506 -25.51306,-5.24638 -37.4711,-10.4208 -42.83405,-18.53495 -72.84988,-59.29292 -79.44066,-107.87107 -1.18945,-8.76701 -1.02371,-27.71738 0.31945,-36.52645 4.3455,-28.49962 16.56305,-53.95342 35.33812,-73.62276 19.97413,-20.92551 44.21449,-33.0666 77.64199,-38.88797 35.92351,-6.25604 77.07312,4.42488 105.86115,27.47765 38.56493,30.88186 55.97227,81.44514 45.7042,132.75739 -4.27301,21.35332 -14.52074,43.17618 -28.04992,59.73314 -17.85154,21.84664 -43.67487,37.85456 -72.041,44.65828 -13.34766,3.20149 -33.41645,4.3347 -47.86223,2.70259 z m 36.52644,-58.70259 c 11.30152,-2.95369 21.75248,-8.79537 30.35583,-16.96773 21.4609,-20.38574 29.40474,-52.4902 19.89584,-80.40753 -3.54822,-10.41725 -9.16379,-19.2293 -17.45764,-27.39483 -8.06928,-7.94444 -13.07719,-10.15558 -19.26611,-8.50658 -5.09579,1.35773 -10.07324,7.93924 -10.06069,13.30289 0.01,4.20917 1.35006,6.40392 7.81629,12.80001 10.80576,10.68853 14.83674,19.31521 15.34205,32.83339 0.33803,9.04336 -0.87427,14.91424 -4.6612,22.57292 -10.36654,20.96531 -33.50021,31.82101 -54.26634,25.465 -20.06436,-6.14122 -34.32221,-25.43543 -34.37093,-46.51191 -0.0183,-7.92816 1.10138,-12.70442 4.69895,-20.04416 2.13628,-4.35839 3.83,-6.55047 10.02311,-12.97232 5.95485,-6.17479 7.6,-8.27569 8.18675,-10.45474 1.661,-6.16846 -1.49469,-12.81629 -7.56186,-15.93 -6.33445,-3.25088 -11.82668,-1.53181 -20.16397,6.31131 -11.13205,10.47223 -18.3432,23.75466 -21.47202,39.54993 -1.27828,6.45315 -1.11623,21.97619 0.29779,28.52594 2.28387,10.57895 5.61751,18.53781 11.38728,27.18649 9.03648,13.54535 22.41733,23.7579 37.94434,28.95993 9.33743,3.12832 14.32036,3.8003 26.32884,3.55056 9.04457,-0.18809 11.68336,-0.47807 17.00369,-1.86857 z m -12.41377,-87.72254 c 3.34167,-2.06599 5.4331,-5.59966 6.45852,-10.91225 1.00628,-5.21349 0.0854,-52.38614 -1.08799,-55.73432 -3.13541,-8.94651 -14.5667,-11.69937 -21.87362,-5.26756 -5.00964,4.40966 -5.12362,5.24345 -4.89536,35.81123 0.10733,14.37441 0.46098,27.15522 0.78587,28.4018 0.97773,3.75149 3.19174,6.42831 6.89171,8.33236 2.97677,1.53189 3.97976,1.7385 7.14281,1.47138 2.55066,-0.2154 4.56908,-0.86058 6.57806,-2.10264 z"
       id="path12" /></g></svg>
